<?xml version="1.0" encoding="UTF-8"?>
<svg version="1.1" xmlns="http://www.w3.org/2000/svg" width="32" height="32">
<path d="M0 0 C3.3 0 6.6 0 10 0 C10 3.96 10 7.92 10 12 C13.96 12 17.92 12 22 12 C22 15.3 22 18.6 22 22 C18.04 22 14.08 22 10 22 C10 25.96 10 29.92 10 34 C6.7 34 3.4 34 0 34 C0 30.04 0 26.08 0 22 C-3.96 22 -7.92 22 -12 22 C-12 18.7 -12 15.4 -12 12 C-8.04 12 -4.08 12 0 12 C0 8.04 0 4.08 0 0 Z " fill="#FF0000" transform="translate(45,26)"/>
<path d="M0 0 C6.3039286 1.00862858 10.84397023 3.95453586 15.4375 8.3125 C17.57773703 11.99370769 17.79093235 14.74895776 18 19 C17.67 19.66 17.34 20.32 17 21 C12.3926927 21.31774533 9.8746984 21.42909733 5.6875 19.375 C1.85257424 15.98599584 0.14658934 13.36171708 -0.17578125 8.16796875 C-0.1862956 5.43774181 -0.1310027 2.72679702 0 0 Z " fill="#53AE30" transform="translate(25,14)"/>
<path d="M0 0 C0.62721538 10.76719736 0.62721538 10.76719736 -1.8125 15.5625 C-2.534375 16.366875 -3.25625 17.17125 -4 18 C-4.4434375 18.53109375 -4.886875 19.0621875 -5.34375 19.609375 C-7.47779786 21.4011699 -8.93447506 21.48800544 -11.6875 21.6875 C-12.89986328 21.78611328 -12.89986328 21.78611328 -14.13671875 21.88671875 C-15.05904297 21.94279297 -15.05904297 21.94279297 -16 22 C-18 19 -18 19 -17.875 15.6875 C-16.84238537 11.33576692 -16.03803801 9.32064619 -13 6 C-2.81235698 0 -2.81235698 0 0 0 Z " fill="#54AE30" transform="translate(76,13)"/>
<path d="M0 0 C-0.29779275 5.95585501 -3.11786377 9.71226745 -7 14 C-10.28262031 16.18841354 -11.31790898 16.24854665 -15.125 16.1875 C-16.01445313 16.18105469 -16.90390625 16.17460938 -17.8203125 16.16796875 C-20 16 -20 16 -21 15 C-21.55717362 12.29372812 -21.35857089 10.60335175 -19.94140625 8.21875 C-14.59800295 1.38382762 -8.46250486 -0.52890655 0 0 Z " fill="#53AE30" transform="translate(68,66)"/>
<path d="M0 0 C0.66 0.66 1.32 1.32 2 2 C-6.78235787 12.65525263 -6.78235787 12.65525263 -13.5 13.375 C-17.16527979 12.98229145 -19.05029914 12.14523699 -22 10 C-21.71711523 6.60538272 -21.25867941 5.25867941 -18.8125 2.8125 C-12.60567769 -1.18745216 -7.13075801 -1.59031294 0 0 Z " fill="#53AE30" transform="translate(90,50)"/>
<path d="M0 0 C2.57297668 1.45711732 4.70366732 3.08647982 6.79296875 5.17578125 C7.10546875 7.67578125 7.10546875 7.67578125 6.79296875 10.17578125 C2.7408665 12.87718275 -0.45310768 12.70586476 -5.20703125 12.17578125 C-9.51683633 10.3716768 -13.375845 6.9117796 -16.20703125 3.17578125 C-16.20703125 2.18578125 -16.20703125 1.19578125 -16.20703125 0.17578125 C-11.10131093 -1.52612552 -5.10591412 -1.90681041 0 0 Z " fill="#53AE30" transform="translate(29.20703125,51.82421875)"/>
<path d="M0 0 C-0.62381952 9.87355719 -0.62381952 9.87355719 -4 14 C-6.56555038 15.88140361 -7.56848415 16.05884307 -10.75 15.625 C-11.86375 15.315625 -11.86375 15.315625 -13 15 C-13.75 13.4375 -13.75 13.4375 -14 11 C-11.30980143 4.72287001 -7.39961701 0 0 0 Z " fill="#53AF30" transform="translate(85,31)"/>
<path d="M0 0 C5.56407614 1.00153371 8.38824173 2.6571719 11.91015625 7.11328125 C13.46485488 9.80474877 13.44297738 11.97298789 13 15 C9.86994506 15.98373155 8.43737563 16.1874467 5.375 14.875 C2.62219066 12.70172947 1.3675962 11.23904364 0 8 C-0.23272824 5.2780915 -0.13939346 2.74140478 0 0 Z " fill="#53AE30" transform="translate(16,33)"/>
<path d="M0 0 C6.25591397 1.90858392 9.37016318 3.50024724 13 9 C14.36111111 13.27777778 14.36111111 13.27777778 13 16 C9.3085701 16.34338883 7.45322305 16.27811415 4.25 14.3125 C0.72628165 10.69090059 0.04013441 8.22409956 -0.125 3.1875 C-0.063125 1.6096875 -0.063125 1.6096875 0 0 Z " fill="#53AE30" transform="translate(35,1)"/>
<path d="M0 0 C0.42014232 6.09206361 0.06715472 9.11941433 -4 14 C-7.4352048 16.29013653 -8.985331 16.17842973 -13 16 C-13.43795472 11.62045284 -13.32894381 9.5183357 -10.9375 5.75 C-8.25105101 2.87111197 -4.10436055 0 0 0 Z " fill="#53AE30" transform="translate(65,1)"/>
<path d="M0 0 C5.55067458 2.29032689 9.41606332 4.27040127 12 10 C11.75 13.875 11.75 13.875 11 17 C7.44051799 16.67641073 5.46536524 16.3899006 2.6875 14.0625 C0.03521051 10.82081284 -0.11536205 8.99823976 -0.0625 4.875 C-0.05347656 3.96492188 -0.04445312 3.05484375 -0.03515625 2.1171875 C-0.02355469 1.41851563 -0.01195312 0.71984375 0 0 Z " fill="#53AE30" transform="translate(0,26)"/>
<path d="M0 0 C1.9375 1.5625 1.9375 1.5625 3 3 C1.25 6.875 1.25 6.875 -1 8 C-6.27981804 8.59997932 -8.8313401 7.17612183 -13 4 C-12 1 -12 1 -9.875 -0.25 C-6.21209689 -1.20553994 -3.66580922 -0.88250963 0 0 Z " fill="#54AE30" transform="translate(15,12)"/>
<path d="M0 0 C4.89211153 0.11724015 8.10475657 0.33751986 12.125 3.3125 C14 6 14 6 13.8125 8.3125 C13.544375 8.869375 13.27625 9.42625 13 10 C8.64770828 10.42669527 6.67113339 10.51064497 3.125 7.8125 C1.01736482 5.02298284 0.29445758 3.43533844 0 0 Z " fill="#53AE30" transform="translate(32,67)"/>
<path d="M0 0 C2.4375 1 2.4375 1 4 2 C4 2.99 4 3.98 4 5 C1.2852108 7.15586201 -0.61267437 7.95257237 -4.0625 8.375 C-7.28721541 7.9633342 -8.64125519 7.1773029 -11 5 C-8.48681288 -0.56491433 -5.95149715 -0.30783606 0 0 Z " fill="#53AF30" transform="translate(93,9)"/>
<path d="M0 0 C0.61989796 8.05867347 0.61989796 8.05867347 -1.6875 11.5625 C-4.37484955 13.23301458 -5.89156165 13.34538204 -9 13 C-10 10 -10 10 -8.75 7 C-4.66666667 0 -4.66666667 0 0 0 Z " fill="#53AE30" transform="translate(99,30)"/>
<path d="M0 0 C4.55737263 0.43820891 7.57653445 0.85041169 11 4 C10.67 5.65 10.34 7.3 10 9 C5.76708435 8.75579333 3.62979579 8.598306 0.5 5.625 C-0.2425 4.325625 -0.2425 4.325625 -1 3 C-0.67 2.01 -0.34 1.02 0 0 Z " fill="#53AE30" transform="translate(10,21)"/>
<path d="M0 0 C0.48695652 7.30434783 0.48695652 7.30434783 -1.75 10.5 C-4 12 -4 12 -8 12 C-8.8125 9.875 -8.8125 9.875 -9 7 C-4.01923077 0 -4.01923077 0 0 0 Z " fill="#53AE30" transform="translate(99,18)"/>
<path d="M0 0 C-2.12547529 6.04942966 -2.12547529 6.04942966 -5 8 C-8.1875 8.1875 -8.1875 8.1875 -11 8 C-11.75 6.25 -11.75 6.25 -12 4 C-8.83456939 -0.95458704 -5.34660309 -0.35644021 0 0 Z " fill="#53AE30" transform="translate(91,19)"/>
<path d="M0 0 C1.670625 0.061875 1.670625 0.061875 3.375 0.125 C2.12523244 3.77816671 1.70401247 4.90565836 -1.625 7.125 C-4.3125 6.75 -4.3125 6.75 -6.625 6.125 C-5.71577947 1.57889733 -4.95184304 0.17075321 0 0 Z " fill="#53AF30" transform="translate(76.625,-0.125)"/>
<path d="M0 0 C6.41868512 -0.3633218 6.41868512 -0.3633218 9 1.25 C10 3 10 3 9.6875 5.1875 C9.3471875 6.0846875 9.3471875 6.0846875 9 7 C3.49411765 6.51058824 3.49411765 6.51058824 1.125 4.0625 C0 2 0 2 0 0 Z " fill="#54AE30" transform="translate(20,0)"/>
<path d="M0 0 C2.31 0 4.62 0 7 0 C7.66 1.32 8.32 2.64 9 4 C6.75 4.6875 6.75 4.6875 4 5 C1.6875 3.6875 1.6875 3.6875 0 2 C0 1.34 0 0.68 0 0 Z " fill="#53AE30" transform="translate(11,3)"/>
<path d="M0 0 C2.86724686 0.57344937 3.8614515 0.8614515 6 3 C6 4.32 6 5.64 6 7 C1.125 6.125 1.125 6.125 0 5 C-0.04063832 3.33382885 -0.042721 1.66611905 0 0 Z " fill="#53AF30" transform="translate(45,62)"/>
<path d="M0 0 C2.31 0 4.62 0 7 0 C6.3125 1.9375 6.3125 1.9375 5 4 C2.12060581 4.93580311 0.74490212 5.37245106 -2 4 C-1.34 2.68 -0.68 1.36 0 0 Z " fill="#53AE30" transform="translate(60,51)"/>
<path d="M0 0 C1.134375 0.020625 2.26875 0.04125 3.4375 0.0625 C3.1075 1.3825 2.7775 2.7025 2.4375 4.0625 C0.4575 4.3925 -1.5225 4.7225 -3.5625 5.0625 C-4.125 3.125 -4.125 3.125 -4.5625 1.0625 C-3.5625 0.0625 -3.5625 0.0625 0 0 Z " fill="#54AF30" transform="translate(51.5625,18.9375)"/>
<path d="M0 0 C3.625 -0.1875 3.625 -0.1875 7 0 C6.3125 1.9375 6.3125 1.9375 5 4 C2.5 4.875 2.5 4.875 0 5 C-0.66 4.34 -1.32 3.68 -2 3 C-1.34 2.01 -0.68 1.02 0 0 Z " fill="#53AF30" transform="translate(82,3)"/>
<path d="M0 0 C2.31 0 4.62 0 7 0 C7.66 1.32 8.32 2.64 9 4 C6.75 4.6875 6.75 4.6875 4 5 C1.6875 3.6875 1.6875 3.6875 0 2 C0 1.34 0 0.68 0 0 Z " fill="#53AE30" transform="translate(33,51)"/>
</svg>
